<?xml version="1.0" encoding="UTF-8" standalone="no"?>
<!-- Created with Inkscape (http://www.inkscape.org/) -->

<svg
   width="58.919346mm"
   height="77.552261mm"
   viewBox="0 0 58.919346 77.552261"
   version="1.1"
   id="svg1"
   xmlns="http://www.w3.org/2000/svg"
   xmlns:svg="http://www.w3.org/2000/svg">
  <defs
     id="defs1" />
  <g
     id="layer1"
     transform="translate(-50.830913,-2.6674563)">
    <path
       style="fill:#79d4fd;fill-opacity:1;stroke:#000000;stroke-width:0.565;stroke-dasharray:none;stroke-opacity:1"
       d="m 68.197428,9.2486923 c 0.212701,0.1229501 3.907681,-6.8873593 5.79211,-6.259216 1.087776,0.3625913 1.238462,2.2181222 0.09342,3.9236877"
       id="path15" />
    <path
       style="fill:#79d4fd;fill-opacity:1;stroke:#000000;stroke-width:0.565;stroke-dasharray:none;stroke-opacity:1"
       d="M 99.213245,8.6881657 C 100.3583,6.8333516 109.0766,5.14984 107.90141,9.1552712 c -0.2985,1.0173878 -3.32401,0.9567698 -5.04474,2.5223708"
       id="path16" />
    <path
       style="fill:#c9b8bc;fill-opacity:1;stroke:#000000;stroke-width:0.565;stroke-linecap:round;stroke-dasharray:none;stroke-opacity:1"
       d="m 56.05268,36.247401 c -2.442755,-0.243683 -4.50363,-1.655158 -4.857897,-0.373685 -0.576428,2.085084 1.890652,2.52978 5.418425,3.363162"
       id="path10" />
    <path
       style="fill:#c9b8bc;fill-opacity:1;stroke:#000000;stroke-width:0.565;stroke-dasharray:none;stroke-opacity:1"
       d="m 65.675057,73.615856 c -0.783439,0.924236 -3.24903,3.561416 -2.335527,4.484212 1.602222,1.618525 3.975036,-1.172401 5.605269,-2.802634"
       id="path12" />
    <path
       style="fill:#c9b8bc;fill-opacity:1;stroke:#000000;stroke-width:0.565;stroke-dasharray:none;stroke-opacity:1"
       d="m 91.085605,75.390856 c 0.834474,2.650182 2.159055,4.966319 3.736847,4.484214 1.724814,-0.527027 0.684349,-2.92471 -0.373686,-5.511845"
       id="path13" />
    <path
       style="fill:#c9b8bc;fill-opacity:1;stroke:#000000;stroke-width:0.565;stroke-dasharray:none;stroke-opacity:1"
       d="m 104.91193,62.311896 c 1.21397,0.124221 4.40093,-0.423808 3.83027,1.868422 -0.57066,2.292231 -3.27281,1.121053 -4.39079,1.121053"
       id="path14" />
    <path
       style="fill:#000000;fill-rule:nonzero;stroke:none;stroke-width:0.265;stroke-dasharray:none;stroke-opacity:1"
       d="m 63.043103,70.627033 c -0.668781,-1.368731 -1.264994,-2.893063 -1.543273,-4.508865 -0.220721,-1.281601 -0.238027,-2.567428 -0.02616,-4.016603 0.185155,-1.266472 0.528003,-2.566583 1.006558,-4.152934 0.431532,-1.43048 0.965537,-3.059617 1.538349,-5.065281 0.822787,-2.882047 1.464654,-6.388159 1.64749,-10.052667 0.170095,-3.409144 -0.06273,-6.906879 -0.91199,-9.955309 -0.119008,-0.426247 -0.278277,-0.91774 -0.466988,-1.467031 -0.187736,-0.546452 -0.400367,-1.13794 -0.626994,-1.769905 -0.44927,-1.252824 -0.948153,-2.649502 -1.370264,-4.051483 -0.42268,-1.403872 -0.77388,-2.830292 -0.925079,-4.151833 -0.07617,-0.665747 -0.102563,-1.312829 -0.05931,-1.923066 0.04352,-0.614112 0.15828,-1.201073 0.371052,-1.735938 0.797725,-2.006458 1.729884,-3.726385 2.929547,-5.241266 1.301046,-1.642902 2.86072,-2.9703495 4.714332,-4.092677 1.412629,-0.8531392 3.032479,-1.4707304 4.642416,-1.9191749 1.79756,-0.500706 3.645755,-0.8082443 5.329131,-0.9939737 0.378768,-0.04179 0.751668,-0.077693 1.116869,-0.1083988 1.478705,-0.1243291 2.917979,-0.172244 4.250868,-0.1665326 1.774057,0.0076 3.394725,0.1100705 4.757766,0.2663095 3.303322,0.3827072 6.399655,1.2446954 8.951131,2.4607916 1.395757,0.6652519 2.647993,1.4444925 3.717393,2.3324409 1.12172,0.931391 2.04945,1.988363 2.7304,3.167639 0.34178,0.591791 0.66296,1.273512 0.96267,2.006494 0.30453,0.744759 0.59276,1.556885 0.86258,2.405814 0.10202,0.320993 0.20166,0.648046 0.2988,0.979687 0.45558,1.555453 0.82733,3.123796 1.1181,4.516994 0.4118,1.973164 0.71527,3.85191 0.92854,5.462487 0.10904,0.823422 0.19996,1.618182 0.26965,2.350317 0.0651,0.683675 0.1138,1.33582 0.13849,1.902904 0.16141,2.386657 0.21752,4.946815 0.0676,7.721267 -0.0788,1.458571 -0.21825,3.031534 -0.45106,4.7915 -0.49462,3.739132 -1.28465,7.50585 -2.62828,13.338498 -0.7667,3.039895 -1.91384,6.228326 -3.76887,9.305011 -1.06268,1.748679 -2.30106,3.091389 -3.656997,4.13946 -1.366567,1.056284 -2.839425,1.80303 -4.341329,2.364406 -1.531172,0.572316 -3.108414,0.957163 -4.625652,1.270415 -1.514206,0.312627 -3.038712,0.56584 -4.552918,0.878467 -1.576699,0.325535 -3.477613,0.570247 -5.465438,0.656475 -2.19025,0.09501 -4.391462,-0.0051 -6.447183,-0.344401 -2.388719,-0.394313 -4.437658,-1.086546 -6.113145,-2.051148 -0.989721,-0.569797 -1.816972,-1.215839 -2.503058,-1.914472 -0.837623,-0.852941 -1.436019,-1.754859 -1.865717,-2.634418 z m 1.153378,-0.561834 c 0.372811,0.767889 0.89103,1.556884 1.621103,2.308212 0.598672,0.616101 1.330453,1.197235 2.222732,1.718513 1.514068,0.884531 3.410559,1.549091 5.685969,1.940728 1.957948,0.336995 4.074169,0.449712 6.19965,0.373389 1.929232,-0.06928 3.770756,-0.292006 5.290298,-0.590162 1.536388,-0.301708 3.024847,-0.533755 4.561233,-0.835462 1.496764,-0.294876 3.017201,-0.653508 4.479958,-1.186308 1.431271,-0.521332 2.815066,-1.211767 4.092295,-2.184419 1.265364,-0.963619 2.431321,-2.207994 3.441181,-3.850768 1.82888,-2.951549 2.97132,-6.044587 3.70687,-9.014056 1.32848,-5.803332 2.09731,-9.575392 2.54059,-13.249261 0.2093,-1.7346 0.32224,-3.284676 0.36982,-4.714511 0.0907,-2.72657 -0.0571,-5.223397 -0.31895,-7.558059 -0.0746,-0.537922 -0.17589,-1.156861 -0.29554,-1.819376 -0.12777,-0.707441 -0.27797,-1.473412 -0.44462,-2.272697 -0.32101,-1.539693 -0.74541,-3.403854 -1.22618,-5.293172 -0.34051,-1.338158 -0.75638,-2.873661 -1.21582,-4.350989 -0.0986,-0.317011 -0.19844,-0.628523 -0.29945,-0.933179 -0.26773,-0.807525 -0.54309,-1.565525 -0.82348,-2.24869 -0.27735,-0.675747 -0.55589,-1.269055 -0.83188,-1.759868 -0.52918,-0.941233 -1.26484,-1.830377 -2.20723,-2.657191 C 99.84547,11.098639 98.760695,10.369951 97.506132,9.7225942 95.207223,8.5363518 92.339633,7.6288164 89.203784,7.1848698 87.912396,7.0003617 86.357989,6.8676105 84.640382,6.8325634 c -1.289251,-0.026307 -2.681092,0.0024 -4.110616,0.1093494 -0.352777,0.026393 -0.712663,0.057826 -1.07791,0.094954 -1.627386,0.1654301 -3.394026,0.4474519 -5.097624,0.9095566 -1.529981,0.4150111 -3.020053,0.9785701 -4.290257,1.7351008 -1.732077,1.0291104 -3.168086,2.2370444 -4.363107,3.7259344 -1.104703,1.376361 -1.984217,2.965751 -2.75357,4.87698 -0.150585,0.373515 -0.245019,0.815992 -0.283035,1.326154 -0.03773,0.506276 -0.01898,1.066759 0.04849,1.672197 0.134538,1.207143 0.457351,2.547232 0.866613,3.917421 0.40759,1.364596 0.892211,2.730836 1.340171,3.98802 0.224253,0.629357 0.439134,1.230916 0.629248,1.788181 0.190836,0.559383 0.358596,1.079563 0.486731,1.543003 0.89429,3.228313 1.12482,6.877465 0.946688,10.377602 -0.191871,3.770095 -0.854543,7.374412 -1.705933,10.346041 -0.582377,2.033388 -1.121453,3.673112 -1.548218,5.082683 -0.475174,1.569458 -0.796931,2.795325 -0.96952,3.964535 -0.195002,1.321053 -0.179025,2.469134 0.01527,3.609606 0.247223,1.451173 0.78323,2.848366 1.422678,4.165317 z"
       id="path4" />
    <path
       style="fill:#79d4fd;fill-opacity:1;fill-rule:nonzero;stroke:#000000;stroke-width:1.52609;stroke-dasharray:none;stroke-opacity:1"
       d="M 63.619792,70.346116 C 60.466092,63.871953 62.42111,60.847391 64.647425,53.063204 66.416328,46.878333 67.100628,38.838399 65.394798,32.697396 64.403698,29.129472 60.853002,21.677519 62.311892,18.030279 63.833382,14.22657 65.9078,11.332468 69.69217,9.0618501 74.84601,5.9695417 83.81143,5.6468202 89.310599,6.352637 95.35167,7.1280067 101.41627,9.6884447 103.8843,14.01317 c 2.45233,4.297211 4.47874,14.921298 4.8579,19.151332 0.80867,9.021553 -0.45359,15.461963 -2.80263,25.690814 -0.809,3.235984 -1.997,6.30824 -3.73685,9.155271 -4.139542,6.773799 -10.944267,7.159984 -16.875781,8.354851 -5.931514,1.194866 -18.036192,1.516704 -21.707147,-6.019322 z"
       id="path4-0"
       transform="translate(0.0013172,-0.22344065)" />
    <path
       style="fill:#f9fafa;fill-opacity:1;stroke:#000000;stroke-width:0.565;stroke-dasharray:none;stroke-opacity:1"
       d="m 64.927689,10.463167 c 3.807543,-0.337871 8.925288,1.289681 6.539479,9.528955 -1.083464,5.518209 -6.886603,10.809893 -11.957907,7.006587 -2.982375,-2.385901 -4.424754,-7.164345 -2.802633,-10.463167 2.090434,-4.251208 3.058007,-5.61422 8.221061,-6.072375 z"
       id="path5" />
    <path
       style="fill:#fffffd;fill-opacity:1;stroke:#000000;stroke-width:0.565;stroke-dasharray:none;stroke-opacity:1"
       d="m 76.698752,26.625023 -0.373684,4.297373 h 3.456582 c 0,0 -0.01283,-3.669081 -0.186842,-4.017108"
       id="path8" />
    <path
       style="fill:#f9fafa;fill-opacity:1;stroke:#000000;stroke-width:0.565;stroke-dasharray:none;stroke-opacity:1"
       d="m 89.030341,26.811867 c -1.431817,-1.057446 -2.002976,-4.189292 -2.148684,-5.792112 -0.349991,-3.849898 0.515246,-5.976372 3.269738,-8.501323 1.781678,-1.976328 5.138271,-1.903273 7.567111,-1.868421 3.938194,0.02521 8.318804,3.334894 9.061854,7.47369 0.42226,3.378051 -0.67594,8.673972 -4.29738,10.182904 -3.446011,1.43584 -9.671415,1.297824 -13.452639,-1.494738 z"
       id="path9" />
    <path
       style="fill:#c9b8bc;fill-opacity:1;stroke:#000000;stroke-width:0.565;stroke-dasharray:none;stroke-opacity:1"
       d="m 76.979014,26.811865 c -1.434441,0.478274 -2.982105,1.451715 -4.577635,0.653948 -0.946055,-0.473027 -0.275209,-1.969422 0.09342,-2.52237 1.378092,-2.067138 4.683709,-4.293155 7.193428,-3.456582 1.109154,0.369719 3.135283,0.426072 4.017107,1.307896 1.919346,1.919345 1.890914,5.138162 -1.588158,5.138162 -1.009137,0 -1.876533,-0.0081 -2.52237,-0.373685 -1.216621,-0.688684 -1.01857,-1.279918 -2.615792,-0.747369 z"
       id="path6" />
    <path
       style="fill:#6b6e7f;fill-opacity:1;stroke:#000000;stroke-width:0.565;stroke-dasharray:none;stroke-opacity:1"
       d="m 76.792174,21.486861 c 0.0432,-0.82553 0.885672,-2.708144 2.148685,-2.709213 1.636266,-0.0014 1.661959,1.00141 2.52237,2.709213 0.381247,0.756723 -4.714259,0.825531 -4.671055,0 z"
       id="path7" />
    <path
       style="fill:#000000;fill-opacity:1;stroke:#000000;stroke-width:0.564999;stroke-linecap:round;stroke-dasharray:none;stroke-opacity:1"
       d="m 58.466661,21.846323 c -0.911177,-0.832976 0.106484,-2.382444 2.04782,-1.651468 1.966226,0.740347 -0.508591,3.058595 -2.04782,1.651468 z"
       id="path17" />
    <path
       style="fill:#000000;fill-opacity:1;stroke:#000000;stroke-width:0.565;stroke-linecap:round;stroke-dasharray:none;stroke-opacity:1"
       d="m 90.535417,24.617872 c -1.509162,-1.753227 0.566266,-3.405655 2.014791,-2.279025 1.454954,1.13163 -0.50563,4.032253 -2.014791,2.279025 z"
       id="path18" />
    <path
       d="m 54.838207,57.921103 c -2.238481,-2.291089 -2.333762,-6.96014 -2.428949,-11.210536 -0.134844,-6.02124 1.696866,-10.991729 5.79211,-13.265801 4.919478,-2.731766 21.014732,-2.574725 30.735554,-0.653948 6.995501,1.38227 6.085095,18.219507 5.511847,21.580283 -0.832817,4.882547 -5.710955,3.947789 -7.753954,5.418425 0.155357,0.890193 2.904202,3.961209 7.940796,6.726321 -2.624215,0 -7.613064,-0.541165 -10.089481,-1.401317 -2.757178,-0.95767 -4.374403,-2.691959 -6.072375,-4.297372 -12.050826,0.509386 -20.503931,0.309161 -23.635548,-2.896055 z"
       id="path2"
       style="fill:#ffffff" />
    <path
       style="fill:#000000;fill-opacity:1;fill-rule:nonzero;stroke:none;stroke-width:0.565;stroke-linecap:round;stroke-dasharray:none;stroke-opacity:1"
       d="m 55.154592,57.611983 c -0.38998,-0.402768 -0.828885,-1.011839 -1.202356,-1.978444 -0.277977,-0.719449 -0.501917,-1.588638 -0.665779,-2.657111 -0.28678,-1.869965 -0.331587,-3.889365 -0.375074,-6.277106 -0.05658,-2.918258 0.355786,-5.601471 1.290853,-7.824835 0.466178,-1.108458 1.052339,-2.07893 1.751251,-2.902176 0.725877,-0.855009 1.565038,-1.541593 2.504923,-2.064653 0.576049,-0.320484 1.328845,-0.602762 2.215877,-0.84572 0.08754,-0.02398 0.176282,-0.04754 0.266168,-0.0707 0.844851,-0.217649 1.802418,-0.402162 2.846277,-0.554708 2.336902,-0.341508 5.094986,-0.521316 7.987257,-0.559445 2.915851,-0.03844 5.978194,0.06688 8.912278,0.297638 2.930983,0.230511 5.7452,0.587087 8.16421,1.053566 0.393849,0.07497 0.76043,0.204106 1.102614,0.382238 0.341398,0.177723 0.66111,0.405583 0.960437,0.680373 0.596497,0.547599 1.1101,1.279905 1.54671,2.162536 0.432147,0.87361 0.783211,1.883033 1.063897,2.982301 0.277321,1.086089 0.483946,2.251998 0.63289,3.448087 0.292282,2.347163 0.358648,4.781061 0.311363,6.882487 -0.023,1.022236 -0.07271,1.955057 -0.134345,2.741553 -0.03038,0.387689 -0.06354,0.738252 -0.09754,1.044191 -0.03372,0.303461 -0.06804,0.561014 -0.100876,0.765631 -0.09475,0.579349 -0.248878,1.072101 -0.450629,1.493331 -0.197691,0.412754 -0.442063,0.758888 -0.724311,1.052578 -0.276899,0.288124 -0.591551,0.527136 -0.937252,0.729607 -0.339041,0.19857 -0.705424,0.360559 -1.092557,0.499689 -0.130192,0.04679 -0.262303,0.09084 -0.396117,0.132778 -0.660658,0.207036 -1.245359,0.331635 -1.952792,0.515283 -0.371741,0.0965 -0.749173,0.203638 -1.098891,0.335858 -0.33732,0.127532 -0.663526,0.283655 -0.949163,0.489196 a 0.27556981,0.27532153 67.202069 0 0 -0.110408,0.270868 c 0.01408,0.08083 0.04096,0.164927 0.07619,0.250114 0.035,0.0846 0.08025,0.175105 0.134801,0.270769 0.106692,0.187112 0.253511,0.401937 0.440261,0.64067 0.360342,0.460645 0.881462,1.02546 1.569724,1.658751 1.128717,1.038567 2.737851,2.288456 4.821749,3.529255 -0.359839,-0.01754 -0.743336,-0.04182 -1.14366,-0.07267 -0.867873,-0.06687 -1.808933,-0.164133 -2.746868,-0.288572 -0.938286,-0.124485 -1.867551,-0.275381 -2.713293,-0.448747 -0.854001,-0.175059 -1.611013,-0.370627 -2.205331,-0.58137 -1.359312,-0.480929 -2.416117,-1.152777 -3.319846,-1.872542 -0.94529,-0.752864 -1.81689,-1.6422 -2.594932,-2.389417 a 0.38197952,0.39375471 66.356708 0 0 -0.285065,-0.106508 c -3.142775,0.128045 -5.875277,0.200742 -8.320542,0.198986 -2.677339,-0.0019 -4.900312,-0.09372 -6.785249,-0.279857 C 61.188828,60.132178 59.554804,59.801694 58.290976,59.387264 57.557174,59.146639 56.96128,58.88177 56.472663,58.605455 55.898512,58.28077 55.474434,57.941269 55.154592,57.611983 Z m -0.63277,0.61824 c 0.384234,0.391329 0.878409,0.778292 1.522798,1.137689 0.547162,0.30517 1.198355,0.588191 1.97993,0.839711 1.343225,0.432267 3.043712,0.763174 5.246548,0.970847 1.921155,0.181117 4.172747,0.264298 6.866491,0.256491 2.418173,-0.007 5.109684,-0.08657 8.189285,-0.220136 0.741262,0.694414 1.621964,1.553945 2.561366,2.280132 0.961628,0.743369 2.094638,1.443409 3.546933,1.939023 0.6371,0.217012 1.428535,0.411824 2.299051,0.582295 0.865108,0.169412 1.81065,0.3152 2.760958,0.434019 0.950383,0.118827 1.903389,0.210414 2.782812,0.271637 0.886065,0.06169 1.696238,0.09249 2.357617,0.08966 a 0.29533393,0.29632184 59.287392 0 0 0.142321,-0.554985 c -2.553374,-1.395174 -4.474299,-2.847425 -5.752924,-4.014598 -0.673534,-0.614826 -1.174825,-1.155548 -1.514106,-1.585995 -0.176055,-0.223362 -0.306992,-0.415077 -0.397314,-0.572332 -0.04605,-0.08017 -0.08041,-0.149432 -0.104767,-0.207893 -0.02503,-0.06008 -0.03751,-0.104058 -0.0427,-0.133608 l -0.110408,0.270868 c 0.233095,-0.167864 0.51148,-0.303478 0.822006,-0.420396 0.321762,-0.121148 0.676546,-0.221602 1.042601,-0.315441 0.683138,-0.175123 1.299915,-0.304819 1.981105,-0.513398 0.140429,-0.043 0.28021,-0.08849 0.418915,-0.137142 0.41187,-0.144473 0.813319,-0.316538 1.192357,-0.533051 0.387296,-0.221231 0.749215,-0.487778 1.072945,-0.815721 0.330607,-0.334908 0.617498,-0.729964 0.849912,-1.198055 0.236804,-0.476934 0.414796,-1.025148 0.526355,-1.655328 0.03918,-0.217625 0.07911,-0.485978 0.117969,-0.796384 0.03925,-0.313567 0.07753,-0.671084 0.112962,-1.064778 0.07186,-0.798485 0.131802,-1.743681 0.165021,-2.778191 0.0682,-2.124005 0.02309,-4.595944 -0.252633,-6.990947 -0.140606,-1.221312 -0.341053,-2.422031 -0.616865,-3.549441 -0.278805,-1.139641 -0.635689,-2.20886 -1.088625,-3.151663 -0.456902,-0.95106 -1.016421,-1.78367 -1.701776,-2.429782 -0.345299,-0.325527 -0.722889,-0.604013 -1.135167,-0.82577 -0.41387,-0.222612 -0.86007,-0.386627 -1.339428,-0.484211 -2.455519,-0.496686 -5.302535,-0.87875 -8.25899,-1.13104 -2.960667,-0.252649 -6.052642,-0.377004 -9.001084,-0.353216 -2.921684,0.02357 -5.728435,0.192905 -8.1256,0.534406 -1.071592,0.15266 -2.068021,0.340684 -2.958573,0.567607 -0.09496,0.0242 -0.188941,0.04889 -0.281889,0.0741 -0.932657,0.252911 -1.774671,0.56065 -2.452905,0.936674 -1.054149,0.584216 -1.992608,1.353503 -2.798399,2.306185 -0.774746,0.915979 -1.411738,1.983667 -1.910103,3.18241 -0.996806,2.397671 -1.404968,5.23594 -1.328691,8.251343 0.06316,2.376352 0.127514,4.462136 0.446405,6.402912 0.183543,1.117041 0.43286,2.05116 0.749647,2.842968 0.428793,1.07177 0.94036,1.776678 1.418637,2.262531 z"
       id="path19" />
    <path
       style="fill:#c9b8bc;fill-opacity:1;stroke:#000000;stroke-width:0.565;stroke-linecap:round;stroke-dasharray:none;stroke-opacity:1"
       d="m 97.782105,45.16647 c -2.388674,-2.76326 -5.028342,-3.457334 -5.978967,-2.335527 -1.15289,1.360519 1.791627,2.584552 3.830276,4.857903"
       id="path11" />
    <path
       style="fill:none;stroke:#000000;stroke-width:0.665;stroke-linecap:round;stroke-dasharray:none;stroke-opacity:1"
       d="m 100.9604,9.7993584 c 0.20918,-0.3082749 2.17078,-1.7763697 3.7124,-1.0569395"
       id="path3" />
  </g>
</svg>
